<?xml version="1.0" standalone="no"?>
<!DOCTYPE svg PUBLIC "-//W3C//DTD SVG 20010904//EN"
 "http://www.w3.org/TR/2001/REC-SVG-20010904/DTD/svg10.dtd">
<svg version="1.0" xmlns="http://www.w3.org/2000/svg"
 width="320.000000pt" height="320.000000pt" viewBox="0 0 320.000000 320.000000"
 preserveAspectRatio="xMidYMid meet">

<g transform="translate(0.000000,320.000000) scale(0.100000,-0.100000)"
fill="#000000" stroke="none">
<path d="M2539 2951 c-37 -7 -301 -146 -909 -476 -363 -196 -410 -219 -449
-210 -16 3 -102 47 -192 97 -227 125 -442 231 -519 256 -83 27 -221 45 -274
37 -171 -29 -168 -197 7 -361 88 -84 150 -123 427 -274 259 -140 290 -162 308
-215 9 -28 15 -182 22 -555 16 -889 18 -921 67 -960 48 -37 181 -81 236 -78
51 3 52 4 76 51 13 26 68 228 122 450 55 221 111 438 126 482 39 121 93 215
122 215 6 0 167 -75 357 -167 l346 -168 -6 -55 c-3 -30 -9 -107 -12 -170 -5
-102 -3 -118 14 -145 26 -42 128 -95 181 -95 42 0 42 0 105 98 131 202 342
551 393 649 76 147 69 194 -33 243 -84 41 -152 20 -323 -97 -78 -54 -97 -63
-115 -55 -25 11 -647 391 -659 402 -13 11 98 143 219 261 60 58 203 188 319
290 309 271 365 327 365 365 0 65 -102 163 -191 183 -49 12 -77 12 -130 2z"/>
</g>
</svg>
