<?xml version="1.0" standalone="no"?>
<!DOCTYPE svg PUBLIC "-//W3C//DTD SVG 20010904//EN"
 "http://www.w3.org/TR/2001/REC-SVG-20010904/DTD/svg10.dtd">
<svg version="1.0" xmlns="http://www.w3.org/2000/svg"
 width="50.000000pt" height="50.000000pt" viewBox="0 0 50.000000 50.000000"
 preserveAspectRatio="xMidYMid meet">

<g transform="translate(0.000000,50.000000) scale(0.100000,-0.100000)"
fill="#000000" stroke="none">
<path d="M190 418 c0 -7 7 -22 15 -32 12 -16 22 -86 13 -86 -2 0 -32 9 -68 20
-118 36 -120 23 -10 -57 l80 -58 0 -55 c0 -35 6 -64 15 -76 15 -19 15 -19 30
0 9 12 15 41 15 76 l0 55 80 58 c110 80 108 93 -10 57 -36 -11 -66 -20 -67
-20 -11 0 0 67 14 91 19 32 12 49 -13 29 -13 -12 -17 -11 -25 1 -8 12 -10 12
-19 -1 -7 -12 -12 -12 -22 -2 -16 16 -28 15 -28 0z"/>
</g>
</svg>
